<svg width="50" height="19" viewBox="0 0 50 19" fill="none" xmlns="http://www.w3.org/2000/svg">
<path d="M32 17.5371H0V19.0001H32V17.5371Z" fill="#CB001C"/>
<path d="M32 16.0742H0V17.5372H32V16.0742Z" fill="white"/>
<path d="M32 14.6113H0V16.0743H32V14.6113Z" fill="#CB001C"/>
<path d="M32 13.1479H0V14.611H32V13.1479Z" fill="white"/>
<path d="M32 11.6909H0V13.1539H32V11.6909Z" fill="#CB001C"/>
<path d="M32 10.228H0V11.691H32V10.228Z" fill="white"/>
<path d="M32 8.76514H0V10.2281H32V8.76514Z" fill="#CB001C"/>
<path d="M32 7.30225H0V8.76525H32V7.30225Z" fill="white"/>
<path d="M32 5.8457H0V7.30871H32V5.8457Z" fill="#CB001C"/>
<path d="M32 4.38232H0V5.84533H32V4.38232Z" fill="white"/>
<path d="M32 2.91943H0V4.38244H32V2.91943Z" fill="#CB001C"/>
<path d="M32 1.45654H0V2.91955H32V1.45654Z" fill="white"/>
<path d="M32 0H0V1.46301H32V0Z" fill="#CB001C"/>
<path d="M14.6125 0H0V10.2283H14.6125V0Z" fill="#2A3560"/>
<path d="M1.31895 1.12598L1.44395 1.51399H1.8377L1.51895 1.74934L1.6377 2.13736L1.31895 1.89564L0.993945 2.13736L1.11895 1.74934L0.793945 1.51399H1.19395L1.31895 1.12598Z" fill="white"/>
<path d="M1.31895 2.83057L1.44395 3.21858H1.8377L1.51895 3.4603L1.6377 3.84195L1.31895 3.6066L0.993945 3.84195L1.11895 3.4603L0.793945 3.21858H1.19395L1.31895 2.83057Z" fill="white"/>
<path d="M1.31895 4.5415L1.44395 4.92952H1.8377L1.51895 5.16487L1.6377 5.55289L1.31895 5.31117L0.993945 5.55289L1.11895 5.16487L0.793945 4.92952H1.19395L1.31895 4.5415Z" fill="white"/>
<path d="M1.31895 6.24658L1.44395 6.6346H1.8377L1.51895 6.87631L1.6377 7.25797L1.31895 7.02261L0.993945 7.25797L1.11895 6.87631L0.793945 6.6346H1.19395L1.31895 6.24658Z" fill="white"/>
<path d="M1.31895 7.95752L1.44395 8.33917H1.8377L1.51895 8.58089L1.6377 8.9689L1.31895 8.72719L0.993945 8.9689L1.11895 8.58089L0.793945 8.33917H1.19395L1.31895 7.95752Z" fill="white"/>
<path d="M2.4874 2.02246L2.6124 2.41048H3.00615L2.6874 2.65219L2.80615 3.03384L2.4874 2.79849L2.1624 3.03384L2.2874 2.65219L1.9624 2.41048H2.3624L2.4874 2.02246Z" fill="white"/>
<path d="M2.4874 3.73389L2.6124 4.11554H3.00615L2.6874 4.35725L2.80615 4.74527L2.4874 4.50356L2.1624 4.74527L2.2874 4.35725L1.9624 4.11554H2.3624L2.4874 3.73389Z" fill="white"/>
<path d="M2.4874 5.43848L2.6124 5.82649H3.00615L2.6874 6.06821L2.80615 6.44986L2.4874 6.21451L2.1624 6.44986L2.2874 6.06821L1.9624 5.82649H2.3624L2.4874 5.43848Z" fill="white"/>
<path d="M2.4874 7.14941L2.6124 7.53107H3.00615L2.6874 7.77278L2.80615 8.1608L2.4874 7.91908L2.1624 8.1608L2.2874 7.77278L1.9624 7.53107H2.3624L2.4874 7.14941Z" fill="white"/>
<path d="M3.66855 1.12598L3.79355 1.51399H4.19355L3.86855 1.74934L3.99355 2.13736L3.66855 1.89564L3.34355 2.13736L3.46855 1.74934L3.14355 1.51399H3.54355L3.66855 1.12598Z" fill="white"/>
<path d="M3.66855 2.83057L3.79355 3.21858H4.19355L3.86855 3.4603L3.99355 3.84195L3.66855 3.6066L3.34355 3.84195L3.46855 3.4603L3.14355 3.21858H3.54355L3.66855 2.83057Z" fill="white"/>
<path d="M3.66855 4.5415L3.79355 4.92952H4.19355L3.86855 5.16487L3.99355 5.55289L3.66855 5.31117L3.34355 5.55289L3.46855 5.16487L3.14355 4.92952H3.54355L3.66855 4.5415Z" fill="white"/>
<path d="M3.66855 6.24658L3.79355 6.6346H4.19355L3.86855 6.87631L3.99355 7.25797L3.66855 7.02261L3.34355 7.25797L3.46855 6.87631L3.14355 6.6346H3.54355L3.66855 6.24658Z" fill="white"/>
<path d="M3.66855 7.95752L3.79355 8.33917H4.19355L3.86855 8.58089L3.99355 8.9689L3.66855 8.72719L3.34355 8.9689L3.46855 8.58089L3.14355 8.33917H3.54355L3.66855 7.95752Z" fill="white"/>
<path d="M4.8375 2.02246L4.9625 2.41048H5.3625L5.0375 2.65219L5.1625 3.03384L4.8375 2.79849L4.5125 3.03384L4.6375 2.65219L4.3125 2.41048H4.7125L4.8375 2.02246Z" fill="white"/>
<path d="M4.8375 3.73389L4.9625 4.11554H5.3625L5.0375 4.35725L5.1625 4.74527L4.8375 4.50356L4.5125 4.74527L4.6375 4.35725L4.3125 4.11554H4.7125L4.8375 3.73389Z" fill="white"/>
<path d="M4.8375 5.43848L4.9625 5.82649H5.3625L5.0375 6.06821L5.1625 6.44986L4.8375 6.21451L4.5125 6.44986L4.6375 6.06821L4.3125 5.82649H4.7125L4.8375 5.43848Z" fill="white"/>
<path d="M4.8375 7.14941L4.9625 7.53107H5.3625L5.0375 7.77278L5.1625 8.1608L4.8375 7.91908L4.5125 8.1608L4.6375 7.77278L4.3125 7.53107H4.7125L4.8375 7.14941Z" fill="white"/>
<path d="M6.01875 1.12598L6.14375 1.51399H6.54375L6.21875 1.74934L6.34375 2.13736L6.01875 1.89564L5.7 2.13736L5.825 1.74934L5.5 1.51399H5.9L6.01875 1.12598Z" fill="white"/>
<path d="M6.01875 2.83057L6.14375 3.21858H6.54375L6.21875 3.4603L6.34375 3.84195L6.01875 3.6066L5.7 3.84195L5.825 3.4603L5.5 3.21858H5.9L6.01875 2.83057Z" fill="white"/>
<path d="M6.01875 4.5415L6.14375 4.92952H6.54375L6.21875 5.16487L6.34375 5.55289L6.01875 5.31117L5.7 5.55289L5.825 5.16487L5.5 4.92952H5.9L6.01875 4.5415Z" fill="white"/>
<path d="M6.01875 6.24658L6.14375 6.6346H6.54375L6.21875 6.87631L6.34375 7.25797L6.01875 7.02261L5.7 7.25797L5.825 6.87631L5.5 6.6346H5.9L6.01875 6.24658Z" fill="white"/>
<path d="M6.01875 7.95752L6.14375 8.33917H6.54375L6.21875 8.58089L6.34375 8.9689L6.01875 8.72719L5.7 8.9689L5.825 8.58089L5.5 8.33917H5.9L6.01875 7.95752Z" fill="white"/>
<path d="M7.1877 2.02246L7.3127 2.41048H7.7127L7.3877 2.65219L7.5127 3.03384L7.1877 2.79849L6.86895 3.03384L6.9877 2.65219L6.66895 2.41048H7.06895L7.1877 2.02246Z" fill="white"/>
<path d="M7.1877 3.73389L7.3127 4.11554H7.7127L7.3877 4.35725L7.5127 4.74527L7.1877 4.50356L6.86895 4.74527L6.9877 4.35725L6.66895 4.11554H7.06895L7.1877 3.73389Z" fill="white"/>
<path d="M7.1877 5.43848L7.3127 5.82649H7.7127L7.3877 6.06821L7.5127 6.44986L7.1877 6.21451L6.86895 6.44986L6.9877 6.06821L6.66895 5.82649H7.06895L7.1877 5.43848Z" fill="white"/>
<path d="M7.1877 7.14941L7.3127 7.53107H7.7127L7.3877 7.77278L7.5127 8.1608L7.1877 7.91908L6.86895 8.1608L6.9877 7.77278L6.66895 7.53107H7.06895L7.1877 7.14941Z" fill="white"/>
<path d="M8.3751 1.12598L8.5001 1.51399H8.89385L8.5751 1.74934L8.69385 2.13736L8.3751 1.89564L8.0501 2.13736L8.1751 1.74934L7.8501 1.51399H8.2501L8.3751 1.12598Z" fill="white"/>
<path d="M8.3751 2.83057L8.5001 3.21858H8.89385L8.5751 3.4603L8.69385 3.84195L8.3751 3.6066L8.0501 3.84195L8.1751 3.4603L7.8501 3.21858H8.2501L8.3751 2.83057Z" fill="white"/>
<path d="M8.3751 4.5415L8.5001 4.92952H8.89385L8.5751 5.16487L8.69385 5.55289L8.3751 5.31117L8.0501 5.55289L8.1751 5.16487L7.8501 4.92952H8.2501L8.3751 4.5415Z" fill="white"/>
<path d="M8.3751 6.24658L8.5001 6.6346H8.89385L8.5751 6.87631L8.69385 7.25797L8.3751 7.02261L8.0501 7.25797L8.1751 6.87631L7.8501 6.6346H8.2501L8.3751 6.24658Z" fill="white"/>
<path d="M8.3751 7.95752L8.5001 8.33917H8.89385L8.5751 8.58089L8.69385 8.9689L8.3751 8.72719L8.0501 8.9689L8.1751 8.58089L7.8501 8.33917H8.2501L8.3751 7.95752Z" fill="white"/>
<path d="M9.54355 2.02246L9.6623 2.41048H10.0623L9.74355 2.65219L9.8623 3.03384L9.54355 2.79849L9.21855 3.03384L9.34355 2.65219L9.01855 2.41048H9.41855L9.54355 2.02246Z" fill="white"/>
<path d="M9.54355 3.73389L9.6623 4.11554H10.0623L9.74355 4.35725L9.8623 4.74527L9.54355 4.50356L9.21855 4.74527L9.34355 4.35725L9.01855 4.11554H9.41855L9.54355 3.73389Z" fill="white"/>
<path d="M9.54355 5.43848L9.6623 5.82649H10.0623L9.74355 6.06821L9.8623 6.44986L9.54355 6.21451L9.21855 6.44986L9.34355 6.06821L9.01855 5.82649H9.41855L9.54355 5.43848Z" fill="white"/>
<path d="M9.54355 7.14941L9.6623 7.53107H10.0623L9.74355 7.77278L9.8623 8.1608L9.54355 7.91908L9.21855 8.1608L9.34355 7.77278L9.01855 7.53107H9.41855L9.54355 7.14941Z" fill="white"/>
<path d="M10.7252 1.12598L10.8502 1.51399H11.2502L10.9252 1.74934L11.0502 2.13736L10.7252 1.89564L10.4002 2.13736L10.5252 1.74934L10.2002 1.51399H10.6002L10.7252 1.12598Z" fill="white"/>
<path d="M10.7252 2.83057L10.8502 3.21858H11.2502L10.9252 3.4603L11.0502 3.84195L10.7252 3.6066L10.4002 3.84195L10.5252 3.4603L10.2002 3.21858H10.6002L10.7252 2.83057Z" fill="white"/>
<path d="M10.7252 4.5415L10.8502 4.92952H11.2502L10.9252 5.16487L11.0502 5.55289L10.7252 5.31117L10.4002 5.55289L10.5252 5.16487L10.2002 4.92952H10.6002L10.7252 4.5415Z" fill="white"/>
<path d="M10.7252 6.24658L10.8502 6.6346H11.2502L10.9252 6.87631L11.0502 7.25797L10.7252 7.02261L10.4002 7.25797L10.5252 6.87631L10.2002 6.6346H10.6002L10.7252 6.24658Z" fill="white"/>
<path d="M10.7252 7.95752L10.8502 8.33917H11.2502L10.9252 8.58089L11.0502 8.9689L10.7252 8.72719L10.4002 8.9689L10.5252 8.58089L10.2002 8.33917H10.6002L10.7252 7.95752Z" fill="white"/>
<path d="M11.8937 2.02246L12.0187 2.41048H12.4187L12.0937 2.65219L12.2187 3.03384L11.8937 2.79849L11.5687 3.03384L11.6937 2.65219L11.3687 2.41048H11.7687L11.8937 2.02246Z" fill="white"/>
<path d="M11.8937 3.73389L12.0187 4.11554H12.4187L12.0937 4.35725L12.2187 4.74527L11.8937 4.50356L11.5687 4.74527L11.6937 4.35725L11.3687 4.11554H11.7687L11.8937 3.73389Z" fill="white"/>
<path d="M11.8937 5.43848L12.0187 5.82649H12.4187L12.0937 6.06821L12.2187 6.44986L11.8937 6.21451L11.5687 6.44986L11.6937 6.06821L11.3687 5.82649H11.7687L11.8937 5.43848Z" fill="white"/>
<path d="M11.8937 7.14941L12.0187 7.53107H12.4187L12.0937 7.77278L12.2187 8.1608L11.8937 7.91908L11.5687 8.1608L11.6937 7.77278L11.3687 7.53107H11.7687L11.8937 7.14941Z" fill="white"/>
<path d="M13.0749 1.12598L13.1999 1.51399H13.5999L13.2749 1.74934L13.3999 2.13736L13.0749 1.89564L12.7562 2.13736L12.8749 1.74934L12.5562 1.51399H12.9562L13.0749 1.12598Z" fill="white"/>
<path d="M13.0749 2.83057L13.1999 3.21858H13.5999L13.2749 3.4603L13.3999 3.84195L13.0749 3.6066L12.7562 3.84195L12.8749 3.4603L12.5562 3.21858H12.9562L13.0749 2.83057Z" fill="white"/>
<path d="M13.0749 4.5415L13.1999 4.92952H13.5999L13.2749 5.16487L13.3999 5.55289L13.0749 5.31117L12.7562 5.55289L12.8749 5.16487L12.5562 4.92952H12.9562L13.0749 4.5415Z" fill="white"/>
<path d="M13.0749 6.24658L13.1999 6.6346H13.5999L13.2749 6.87631L13.3999 7.25797L13.0749 7.02261L12.7562 7.25797L12.8749 6.87631L12.5562 6.6346H12.9562L13.0749 6.24658Z" fill="white"/>
<path d="M13.0749 7.95752L13.1999 8.33917H13.5999L13.2749 8.58089L13.3999 8.9689L13.0749 8.72719L12.7562 8.9689L12.8749 8.58089L12.5562 8.33917H12.9562L13.0749 7.95752Z" fill="white"/>
<path d="M41.8125 9.05664H38.1152V12.0801H42.4102V13H36.9902V4.46875H42.3516V5.39453H38.1152V8.13672H41.8125V9.05664ZM44.666 6.66016L44.7012 7.45703C45.1855 6.84766 45.8184 6.54297 46.5996 6.54297C47.9395 6.54297 48.6152 7.29883 48.627 8.81055V13H47.543V8.80469C47.5391 8.34766 47.4336 8.00977 47.2266 7.79102C47.0234 7.57227 46.7051 7.46289 46.2715 7.46289C45.9199 7.46289 45.6113 7.55664 45.3457 7.74414C45.0801 7.93164 44.873 8.17773 44.7246 8.48242V13H43.6406V6.66016H44.666Z" fill="black"/>
</svg>
