<svg width="51" height="19" viewBox="0 0 51 19" fill="none" xmlns="http://www.w3.org/2000/svg">
<path d="M40.1191 10.5488H38.1152V14H36.9844V5.46875H39.8086C40.7695 5.46875 41.5078 5.6875 42.0234 6.125C42.543 6.5625 42.8027 7.19922 42.8027 8.03516C42.8027 8.56641 42.6582 9.0293 42.3691 9.42383C42.084 9.81836 41.6855 10.1133 41.1738 10.3086L43.1777 13.9297V14H41.9707L40.1191 10.5488ZM38.1152 9.62891H39.8438C40.4023 9.62891 40.8457 9.48438 41.1738 9.19531C41.5059 8.90625 41.6719 8.51953 41.6719 8.03516C41.6719 7.50781 41.5137 7.10352 41.1973 6.82227C40.8848 6.54102 40.4316 6.39844 39.8379 6.39453H38.1152V9.62891ZM48.1289 13.373C47.707 13.8691 47.0879 14.1172 46.2715 14.1172C45.5957 14.1172 45.0801 13.9219 44.7246 13.5312C44.373 13.1367 44.1953 12.5547 44.1914 11.7852V7.66016H45.2754V11.7559C45.2754 12.7168 45.666 13.1973 46.4473 13.1973C47.2754 13.1973 47.8262 12.8887 48.0996 12.2715V7.66016H49.1836V14H48.1523L48.1289 13.373Z" fill="black"/>
<path d="M32 0H0V6.33545H32V0Z" fill="#F4F4F4"/>
<path d="M32 6.3291H0V12.6646H32V6.3291Z" fill="#324095"/>
<path d="M32 12.6646H0V19H32V12.6646Z" fill="#D81F26"/>
</svg>
