<svg width="51" height="19" viewBox="0 0 51 19" fill="none" xmlns="http://www.w3.org/2000/svg">
<path d="M40.1191 9.54883H38.1152V13H36.9844V4.46875H39.8086C40.7695 4.46875 41.5078 4.6875 42.0234 5.125C42.543 5.5625 42.8027 6.19922 42.8027 7.03516C42.8027 7.56641 42.6582 8.0293 42.3691 8.42383C42.084 8.81836 41.6855 9.11328 41.1738 9.30859L43.1777 12.9297V13H41.9707L40.1191 9.54883ZM38.1152 8.62891H39.8438C40.4023 8.62891 40.8457 8.48438 41.1738 8.19531C41.5059 7.90625 41.6719 7.51953 41.6719 7.03516C41.6719 6.50781 41.5137 6.10352 41.1973 5.82227C40.8848 5.54102 40.4316 5.39844 39.8379 5.39453H38.1152V8.62891ZM48.1289 12.373C47.707 12.8691 47.0879 13.1172 46.2715 13.1172C45.5957 13.1172 45.0801 12.9219 44.7246 12.5312C44.373 12.1367 44.1953 11.5547 44.1914 10.7852V6.66016H45.2754V10.7559C45.2754 11.7168 45.666 12.1973 46.4473 12.1973C47.2754 12.1973 47.8262 11.8887 48.0996 11.2715V6.66016H49.1836V13H48.1523L48.1289 12.373Z" fill="black"/>
<path d="M32 0H0V6.33545H32V0Z" fill="#F4F4F4"/>
<path d="M32 6.3291H0V12.6646H32V6.3291Z" fill="#324095"/>
<path d="M32 12.6646H0V19H32V12.6646Z" fill="#D81F26"/>
</svg>
